# xmcd CD database file
#
# Track frame offsets:
#	150
#	41317
#	57775
#	74262
#	92435
#	134360
#	147644
#	164748
#	182982
#	198920
#	246049
#	260848
#	271337
#	283256
#	311008
#
# Disc length: 4484 seconds
#
# Revision: 0
# Processed by: cddbd v1.5.1PL0 Copyright (c) Steve Scherf et al.
# Submitted via: CDex 1.51
#
DISCID=ea11820f
DTITLE=Wattstax - Music from the wattstax festival and film cd2
DYEAR=1900
DGENRE=Jazz
TTITLE0=The Emotions - Peace be still
TTITLE1=The golden13 - Old time religion
TTITLE2=The Rance allen group - Lying on the truth
TTITLE3=The Range allen group - up above my head
TTITLE4=The Bar-Kays - Son of shaft - Feel it
TTITLE5=The Bar-Kays - In the hole
TTITLE6=The Bar-Kays - I can't turn you loose
TTITLE7=The David Porter Show - Introduction
TTITLE8=David Porter - Ain't that loving you (for more reasons than one)
TTITLE9=David Porter - Can't see you when I want to
TTITLE10=David Porter - Reach out and touch (somebody's hand)
TTITLE11=Richard Pyor - Niggas
TTITLE12=Richard Pyor - Arrest - Lineup
TTITLE13=The Emotions - So I can love you
TTITLE14=The Emotions - Group introduction - Show me how
EXTD=
EXTT0=
EXTT1=
EXTT2=
EXTT3=
EXTT4=
EXTT5=
EXTT6=
EXTT7=
EXTT8=
EXTT9=
EXTT10=
EXTT11=
EXTT12=
EXTT13=
EXTT14=
PLAYORDER=
